HIERARCHY
ROOT Hips
{
	OFFSET 0.000000 0.000000 0.000000
	CHANNELS 6 Xposition Yposition Zposition Zrotation Yrotation Xrotation 
	JOINT LHipJoint
	{
		OFFSET 0.000000 0.000000 0.000000
		CHANNELS 3 Zrotation Yrotation Xrotation
		JOINT LeftUpLeg
		{
			OFFSET 1.363060 -1.794630 0.839290
			CHANNELS 3 Zrotation Yrotation Xrotation
			JOINT LeftLeg
			{
				OFFSET 2.448110 -6.726130 0.000000
				CHANNELS 3 Zrotation Yrotation Xrotation
				JOINT LeftFoot
				{
					OFFSET 2.562200 -7.039590 0.000000
					CHANNELS 3 Zrotation Yrotation Xrotation
					JOINT LeftToeBase
					{
						OFFSET 0.157640 -0.433110 2.322550
						CHANNELS 3 Zrotation Yrotation Xrotation
						End Site
						{
							OFFSET 0.000000 0.000000 0.000000
						}
					}
				}
			}
		}
	}
	JOINT RHipJoint
	{
		OFFSET 0.000000 0.000000 0.000000
		CHANNELS 3 Zrotation Yrotation Xrotation
		JOINT RightUpLeg
		{
			OFFSET -1.305520 -1.794630 0.839290
			CHANNELS 3 Zrotation Yrotation Xrotation
			JOINT RightLeg
			{
				OFFSET -2.542530 -6.985550 0.000000
				CHANNELS 3 Zrotation Yrotation Xrotation
				JOINT RightFoot
				{
					OFFSET -2.568260 -7.056230 0.000000
					CHANNELS 3 Zrotation Yrotation Xrotation
					JOINT RightToeBase
					{
						OFFSET -0.164730 -0.452590 2.363150
						CHANNELS 3 Zrotation Yrotation Xrotation
						End Site
						{
							OFFSET 0.000000 0.000000 0.000000
						}
					}
				}
			}
		}
	}
}
MOTION
Frames: 16
Frame Time: 0.008333
1.037579 17.141990 1.848570 17.010613 -28.071842 -5.158301 -8.049948 0.517580 7.559096 -18.904328 -25.117035 -7.524257 -4.732800 -0.908216 0.264171 -1.464843 -12.546682 11.872491 -3.098400 0.000000 -40.640200 12.322879 -0.201757 -5.227917 -18.847378 -39.330631 8.962321 -0.283980 -0.026395 2.955498 -4.758548 -28.930671 6.152824 -8.655400 0.000000 -62.742600
1.022712 17.149948 1.838836 17.134678 -28.093897 -5.211279 -8.081713 0.444925 7.531998 -18.868236 -25.209563 -7.546749 -4.734550 -0.905851 0.358810 -1.464491 -12.460536 11.995025 -3.090000 0.000000 -40.614300 12.307492 -0.208375 -5.205764 -18.672633 -39.114159 8.677214 -0.309584 -0.061769 3.211879 -4.864462 -29.408734 5.983894 -8.744701 0.000000 -62.204200
1.005315 17.157475 1.828698 17.209355 -28.036670 -5.229104 -8.091699 0.382200 7.531104 -18.793224 -25.386502 -7.587456 -4.736244 -0.900269 0.465654 -1.466125 -12.417890 12.123102 -3.096099 0.000000 -40.636900 12.304997 -0.212915 -5.207027 -18.536585 -39.074423 8.455172 -0.317587 -0.086582 3.401288 -4.949386 -29.813924 5.848312 -8.820500 0.000000 -61.699400
0.985699 17.164578 1.818574 17.237497 -27.914490 -5.217752 -8.084048 0.332552 7.559026 -18.681393 -25.643266 -7.636976 -4.736444 -0.891867 0.566953 -1.468181 -12.401692 12.255067 -3.112300 0.000000 -40.692900 12.309821 -0.213694 -5.234986 -18.452326 -39.231808 8.307683 -0.305663 -0.099071 3.509547 -5.005471 -30.110704 5.765290 -8.880000 0.000000 -61.278600
0.964543 17.171414 1.808889 17.220601 -27.747543 -5.182687 -8.063267 0.296806 7.614340 -18.534101 -25.968378 -7.685283 -4.733962 -0.881736 0.649189 -1.469178 -12.387996 12.387529 -3.131100 0.000000 -40.763399 12.317532 -0.212460 -5.289036 -18.422125 -39.581052 8.237277 -0.273066 -0.099649 3.532198 -5.028219 -30.275333 5.747369 -8.921700 -0.000001 -60.981299
0.942646 17.178160 1.799959 17.160959 -27.562946 -5.128519 -8.033905 0.274774 7.693528 -18.351284 -26.345905 -7.726274 -4.727615 -0.871263 0.703316 -1.467647 -12.348258 12.514708 -3.142800 0.000000 -40.828200 12.324719 -0.212727 -5.364322 -18.436931 -40.092560 8.235118 -0.220684 -0.090063 3.475042 -5.016563 -30.297120 5.799127 -8.944600 -0.000000 -60.832399
0.920948 17.185039 1.792062 17.062565 -27.393184 -5.058778 -8.001162 0.265157 7.790483 -18.132438 -26.756552 -7.757111 -4.716102 -0.861784 0.724947 -1.462202 -12.253490 12.630029 -3.136900 -0.000000 -40.871000 12.328404 -0.218767 -5.453156 -18.477557 -40.713597 8.283197 -0.151427 -0.073320 3.352580 -4.973174 -30.180610 5.918143 -8.949300 -0.000000 -60.841000
0.900433 17.192192 1.785341 16.929642 -27.279694 -4.978722 -7.967653 0.268576 7.899861 -17.878636 -27.179220 -7.778984 -4.697857 -0.854037 0.712515 -1.451305 -12.075762 12.724235 -3.103100 -0.000001 -40.878200 12.327988 -0.232404 -5.545133 -18.520446 -41.378240 8.356043 -0.069944 -0.051775 3.186306 -4.902699 -29.937839 6.092411 -8.934501 0.000000 -60.997600
0.881978 17.199765 1.779767 16.768952 -27.261064 -4.891277 -7.937058 0.284196 8.014875 -17.589683 -27.593400 -7.795996 -4.671159 -0.848376 0.668885 -1.433582 -11.793612 12.789212 -3.032900 -0.000001 -40.840100 12.322784 -0.255371 -5.629400 -18.533464 -42.009409 8.422828 0.017362 -0.028525 2.999494 -4.813061 -29.596486 6.306972 -8.902901 0.000000 -61.284500
0.866205 17.207806 1.775191 16.585691 -27.367942 -4.798795 -7.910382 0.310897 8.128624 -17.267470 -27.980542 -7.812722 -4.635175 -0.845077 0.601499 -1.408185 -11.394540 12.817292 -2.920799 0.000000 -40.758200 12.315019 -0.289117 -5.695635 -18.484912 -42.534083 8.453128 0.103778 -0.006692 2.817282 -4.713078 -29.187574 6.538329 -8.854700 0.000001 -61.663000
0.853745 17.216404 1.771290 16.382230 -27.625102 -4.700478 -7.890342 0.346984 8.234176 -16.910048 -28.323895 -7.837993 -4.588285 -0.843532 0.520447 -1.374282 -10.876691 12.803369 -2.765599 -0.000000 -40.636900 12.305429 -0.334053 -5.735033 -18.337808 -42.879915 8.416608 0.181589 0.011218 2.658261 -4.613547 -28.756350 6.767708 -8.798100 0.000000 -62.102700
0.844641 17.225485 1.767395 16.169752 -28.046095 -4.602070 -7.877178 0.390170 8.323987 -16.525590 -28.611997 -7.872145 -4.530470 -0.842994 0.437078 -1.331339 -10.244068 12.744599 -2.569001 -0.000000 -40.484100 12.295432 -0.386479 -5.745320 -18.083014 -43.009051 8.297777 0.245976 0.022891 2.544150 -4.520860 -28.324305 6.969747 -8.729900 -0.000001 -62.549000
0.838944 17.235099 1.763128 15.946618 -28.634422 -4.496186 -7.872585 0.439141 8.394036 -16.107407 -28.835233 -7.927365 -4.460777 -0.842629 0.361918 -1.279533 -9.517113 12.641383 -2.338400 0.000000 -40.317900 12.285907 -0.446819 -5.720943 -17.689116 -42.877014 8.078980 0.290671 0.028151 2.476562 -4.445806 -27.947290 7.135525 -8.668500 0.000000 -62.992200
0.836258 17.245149 1.757720 15.721659 -29.383750 -4.386752 -7.876289 0.491649 8.439416 -15.664442 -28.990098 -8.004696 -4.379977 -0.841213 0.306973 -1.219151 -8.714591 12.496186 -2.081500 0.000000 -40.164800 12.276320 -0.509123 -5.665319 -17.170083 -42.488075 7.762465 0.315060 0.026767 2.467682 -4.390810 -27.632878 7.241632 -8.607001 0.000000 -63.371000
0.836020 17.255556 1.750710 15.498747 -30.277523 -4.271073 -7.888389 0.546900 8.458815 -15.197862 -29.073759 -8.108399 -4.289172 -0.838198 0.277371 -1.151509 -7.867029 12.315850 -1.810001 -0.000000 -40.032400 12.266065 -0.570409 -5.581022 -16.536257 -41.860057 7.355844 0.319015 0.020230 2.512092 -4.359254 -27.406454 7.292558 -8.558000 0.000000 -63.705600
0.837376 17.266174 1.741552 15.284628 -31.295043 -4.149511 -7.908143 0.604421 8.452143 -14.713938 -29.087275 -8.241964 -4.189969 -0.832706 0.280482 -1.078005 -7.000483 12.107446 -1.534200 0.000000 -39.956600 12.253895 -0.625868 -5.473433 -15.813584 -41.030601 6.872845 0.305831 0.010581 2.608089 -4.349941 -27.264125 7.274782 -8.514000 0.000000 -63.952000
